<svg id="Layer_1" data-name="Layer 1" xmlns="http://www.w3.org/2000/svg" viewBox="0 0 70.31 88.19"><defs><style>.cls-1{fill:#f7c745;}.cls-2{fill:#15383f;}</style></defs><title>14_Checklist</title><path class="cls-1" d="M68.31,8.83H45v4h13.4V76.19H9.5V12.83H22.9v-4H7.37a2,2,0,0,0-2,2V86.19a2,2,0,0,0,2,2H68.31a2,2,0,0,0,2-2V10.83A2,2,0,0,0,68.31,8.83Z"/><path class="cls-1" d="M47.24,42.27h-28a1.5,1.5,0,0,1-1.5-1.5V24.94a1.5,1.5,0,0,1,1.5-1.5h7.27a1.5,1.5,0,1,1,0,3H20.7V39.27H47.24a1.5,1.5,0,0,1,0,3Z"/><path class="cls-1" d="M47.24,67.84h-28a1.5,1.5,0,0,1-1.5-1.5V50.51A1.5,1.5,0,0,1,19.2,49h7.27a1.5,1.5,0,1,1,0,3H20.7V64.84H47.24a1.5,1.5,0,0,1,0,3Z"/><path class="cls-2" d="M66.44,3.33H46.53V1.5A1.5,1.5,0,0,0,45,0H22.9a1.5,1.5,0,0,0-1.5,1.5V3.33H1.5A1.5,1.5,0,0,0,0,4.83V84.19a1.5,1.5,0,0,0,1.5,1.5H66.44a1.5,1.5,0,0,0,1.5-1.5V4.83A1.5,1.5,0,0,0,66.44,3.33ZM24.4,3H43.53V15.26H24.4ZM45,18.26a1.5,1.5,0,0,0,1.5-1.5V14.33h10.4V74.69H11V14.33H21.4v2.43a1.5,1.5,0,0,0,1.5,1.5Zm19.9,64.42H3V6.33H21.4v5H9.5A1.5,1.5,0,0,0,8,12.83V76.19a1.5,1.5,0,0,0,1.5,1.5H58.44a1.5,1.5,0,0,0,1.5-1.5V12.83a1.5,1.5,0,0,0-1.5-1.5H46.53v-5h18.4Z"/><path class="cls-2" d="M39,9.52H28.93a1.5,1.5,0,0,0,0,3H39a1.5,1.5,0,0,0,0-3Z"/><path class="cls-2" d="M27.58,35.79a1.5,1.5,0,0,0,1.12.52h0a1.5,1.5,0,0,0,1.11-.5l6.81-7.54a1.5,1.5,0,0,0-2.23-2l-5.67,6.28-1.67-1.93a1.5,1.5,0,1,0-2.27,2Z"/><path class="cls-2" d="M27.58,61.37a1.5,1.5,0,0,0,1.12.52h0a1.5,1.5,0,0,0,1.11-.5l6.81-7.54a1.5,1.5,0,1,0-2.23-2l-5.67,6.28-1.67-1.93a1.5,1.5,0,0,0-2.27,2Z"/></svg>